<svg xmlns="http://www.w3.org/2000/svg" viewBox="0 0 72.98 125.14"><defs><style>.cls-1{fill:#ffc896;}</style></defs><title>Asset 4</title><g id="Layer_2" data-name="Layer 2"><g id="OBJECTS"><path class="cls-1" d="M65.68,40.51a7.32,7.32,0,0,0-7.3,7.29V44.67a7.3,7.3,0,1,0-14.59,0V43.28a7.3,7.3,0,1,0-14.6,0V7.3a7.3,7.3,0,1,0-14.59,0V56.43A9.33,9.33,0,0,0,5.49,49,5.51,5.51,0,0,0,.17,53.12l-.06,0a5.19,5.19,0,0,0-.11,1v.3H0V60H0v2.11H0V77a8.11,8.11,0,0,0,.05.86,5.5,5.5,0,0,0,1.56,4.47L15.45,96.15a10.93,10.93,0,0,0,9.31,6.64v22.35H62.82v-26A22.5,22.5,0,0,0,73,80.37V47.8A7.32,7.32,0,0,0,65.68,40.51Z"/></g></g></svg>