<svg xmlns="http://www.w3.org/2000/svg" viewBox="0 0 70.36 125.68"><defs><style>.cls-1{fill:#ffc896;}</style></defs><title>Asset 5</title><g id="Layer_2" data-name="Layer 2"><g id="OBJECTS"><path class="cls-1" d="M63.07,44.22a7.32,7.32,0,0,0-7.3,7.3V47.77a7.58,7.58,0,0,0-7.55-7.55h-.53a7.57,7.57,0,0,0-6.46,3.67l2.6-36.07A7.3,7.3,0,0,0,29.27,6.77L26,52.85h-1L18.3,9.06A7.3,7.3,0,1,0,3.87,11.24l8,53.14L2.67,71.07A6,6,0,0,0,.55,78.56a5.39,5.39,0,0,0,1.28,2.08L15.31,94.13a20.56,20.56,0,0,0,6.84,6.47v25.08H60.2V111.15l.14.06V99.73a22.11,22.11,0,0,0,10-18.48V51.52A7.31,7.31,0,0,0,63.07,44.22Z"/></g></g></svg>