<svg xmlns="http://www.w3.org/2000/svg" viewBox="0 0 81.4 130.74"><defs><style>.cls-1{fill:#ffc896;}</style></defs><title>Asset 3</title><g id="Layer_2" data-name="Layer 2"><g id="OBJECTS"><path class="cls-1" d="M81.34,21.47a2.17,2.17,0,0,0,0-.25,5.4,5.4,0,0,0-.1-.58c0-.09,0-.18-.08-.27S81,20,81,19.82l-.09-.23c-.1-.24-.21-.48-.33-.71v0a8,8,0,0,0-.43-.69L80,18c-.13-.17-.26-.34-.4-.49l-.15-.17c-.14-.15-.29-.3-.44-.44l-.15-.13a7.57,7.57,0,0,0-.63-.49h0A7.2,7.2,0,0,0,74.1,15a7.32,7.32,0,0,0-7.3,7.3V13.81a7.89,7.89,0,0,0,0-.84c0-.09,0-.17,0-.25a5.4,5.4,0,0,0-.11-.58,2.68,2.68,0,0,0-.07-.27,5.05,5.05,0,0,0-.18-.55l-.08-.23a5.93,5.93,0,0,0-.34-.72h0a7.42,7.42,0,0,0-.44-.7.76.76,0,0,0-.11-.14A4.78,4.78,0,0,0,65,9l-.15-.17a6.14,6.14,0,0,0-.45-.43.86.86,0,0,0-.14-.13,7.28,7.28,0,0,0-12,5.52V7.3a7.92,7.92,0,0,0-.05-.85c0-.08,0-.17,0-.25s-.07-.39-.11-.58,0-.18-.07-.27l-.18-.55-.09-.23c-.1-.24-.21-.48-.33-.71h0a5.46,5.46,0,0,0-.43-.7L50.79,3c-.13-.17-.26-.34-.4-.49l-.15-.17C50.1,2.19,50,2,49.8,1.9l-.14-.13a7.28,7.28,0,0,0-12,5.53v5.6a7.91,7.91,0,0,0-.06-.85,2.17,2.17,0,0,0,0-.25,4.8,4.8,0,0,0-.11-.57,2.29,2.29,0,0,0-.07-.28c-.05-.18-.11-.37-.18-.55s0-.15-.08-.23c-.1-.24-.21-.48-.33-.71v0a8,8,0,0,0-.43-.69l-.12-.15a6.12,6.12,0,0,0-.39-.5l-.15-.16-.44-.44-.15-.13A7.28,7.28,0,0,0,23,12.9V80.8l-7.95-8a9.61,9.61,0,0,0-13.56,0,5.23,5.23,0,0,0-.66,6.53h0a5.65,5.65,0,0,0,.66.82l4.12,4.11h0l.16.16,19,19a10.88,10.88,0,0,0,8.38,4.91v22.35H71.24v-26A22.5,22.5,0,0,0,81.4,86V22.32A6,6,0,0,0,81.34,21.47Z"/></g></g></svg>